<svg width="17" height="16" viewBox="0 0 17 16" fill="none" xmlns="http://www.w3.org/2000/svg">
<g id="mingcute:currency-euro-2-line" clip-path="url(#clip0_190_12591)">
<g id="Group">
<path id="Vector" d="M6.48634 6.00033C7.12501 4.79166 8.32101 4.00033 9.64701 4.00033C10.6237 4.00033 11.5183 4.42166 12.1817 5.12433C12.3044 5.24686 12.47 5.31678 12.6433 5.31925C12.8167 5.32171 12.9842 5.25653 13.1103 5.13753C13.2365 5.01853 13.3112 4.85507 13.3188 4.68184C13.3264 4.50861 13.2662 4.33924 13.151 4.20966C12.2577 3.26299 11.0217 2.66699 9.64701 2.66699C7.52767 2.66699 5.76234 4.06499 5.02967 6.00033H3.99967C3.82286 6.00033 3.65329 6.07056 3.52827 6.19559C3.40325 6.32061 3.33301 6.49018 3.33301 6.66699C3.33301 6.8438 3.40325 7.01337 3.52827 7.1384C3.65329 7.26342 3.82286 7.33366 3.99967 7.33366H4.70501C4.65364 7.77662 4.65364 8.22403 4.70501 8.66699H3.99967C3.82286 8.66699 3.65329 8.73723 3.52827 8.86225C3.40325 8.98728 3.33301 9.15685 3.33301 9.33366C3.33301 9.51047 3.40325 9.68004 3.52827 9.80506C3.65329 9.93009 3.82286 10.0003 3.99967 10.0003H5.02967C5.76234 11.9357 7.52767 13.3337 9.64701 13.3337C11.0217 13.3337 12.2583 12.7377 13.151 11.791C13.2662 11.6614 13.3264 11.492 13.3188 11.3188C13.3112 11.1456 13.2365 10.9821 13.1103 10.8631C12.9842 10.7441 12.8167 10.6789 12.6433 10.6814C12.47 10.6839 12.3044 10.7538 12.1817 10.8763C11.5183 11.579 10.6237 12.0003 9.64634 12.0003C8.32034 12.0003 7.12434 11.209 6.48567 10.0003H9.33301C9.50982 10.0003 9.67939 9.93009 9.80441 9.80506C9.92944 9.68004 9.99967 9.51047 9.99967 9.33366C9.99967 9.15685 9.92944 8.98728 9.80441 8.86225C9.67939 8.73723 9.50982 8.66699 9.33301 8.66699H6.04967C5.9841 8.22497 5.9841 7.77568 6.04967 7.33366H9.33301C9.50982 7.33366 9.67939 7.26342 9.80441 7.1384C9.92944 7.01337 9.99967 6.8438 9.99967 6.66699C9.99967 6.49018 9.92944 6.32061 9.80441 6.19559C9.67939 6.07056 9.50982 6.00033 9.33301 6.00033H6.48634Z" fill="#828792"/>
</g>
</g>
<defs>
<clipPath id="clip0_190_12591">
<rect width="16" height="16" fill="white" transform="translate(0.666504)"/>
</clipPath>
</defs>
</svg>
