<svg width="16" height="16" viewBox="0 0 16 16" fill="none" xmlns="http://www.w3.org/2000/svg">
<g id="material-symbols:menu-rounded">
<path id="Vector" d="M2.66667 12C2.47778 12 2.31934 11.936 2.19134 11.808C2.06334 11.68 1.99956 11.5218 2 11.3333C2 11.1444 2.064 10.986 2.192 10.858C2.32 10.73 2.47822 10.6662 2.66667 10.6667H13.3333C13.5222 10.6667 13.6807 10.7307 13.8087 10.8587C13.9367 10.9867 14.0004 11.1449 14 11.3333C14 11.5222 13.936 11.6807 13.808 11.8087C13.68 11.9367 13.5218 12.0004 13.3333 12H2.66667ZM2.66667 8.66667C2.47778 8.66667 2.31934 8.60267 2.19134 8.47467C2.06334 8.34667 1.99956 8.18845 2 8C2 7.81111 2.064 7.65267 2.192 7.52467C2.32 7.39667 2.47822 7.33289 2.66667 7.33334H13.3333C13.5222 7.33334 13.6807 7.39734 13.8087 7.52534C13.9367 7.65334 14.0004 7.81156 14 8C14 8.18889 13.936 8.34734 13.808 8.47534C13.68 8.60334 13.5218 8.66711 13.3333 8.66667H2.66667ZM2.66667 5.33334C2.47778 5.33334 2.31934 5.26934 2.19134 5.14134C2.06334 5.01334 1.99956 4.85511 2 4.66667C2 4.47778 2.064 4.31934 2.192 4.19134C2.32 4.06334 2.47822 3.99956 2.66667 4H13.3333C13.5222 4 13.6807 4.064 13.8087 4.192C13.9367 4.32 14.0004 4.47822 14 4.66667C14 4.85556 13.936 5.014 13.808 5.142C13.68 5.27 13.5218 5.33378 13.3333 5.33334H2.66667Z" fill="#1B1D21"/>
</g>
</svg>
