<svg width="20" height="20" viewBox="0 0 20 20" fill="none" xmlns="http://www.w3.org/2000/svg">
<g id="socials">
<rect id="Rectangle 1" width="20" height="20" rx="10" fill="#1B1D21"/>
<path id="Vector" d="M15.3 7.45C14.95 7.6 14.55 7.7 14.15 7.75C14.55 7.5 14.9 7.1 15.05 6.65C14.65 6.9 14.25 7.05 13.75 7.15C13.4 6.75 12.85 6.5 12.3 6.5C11.2 6.5 10.3 7.4 10.3 8.5C10.3 8.65 10.3 8.8 10.35 8.95C8.7 8.85 7.2 8.05 6.2 6.85C6.05 7.15 5.95 7.5 5.95 7.85C5.95 8.55 6.3 9.15 6.85 9.5C6.5 9.5 6.2 9.4 5.95 9.25C5.95 10.2 6.65 11.05 7.55 11.2C7.4 11.25 7.2 11.25 7 11.25C6.85 11.25 6.75 11.25 6.6 11.2C6.85 12 7.6 12.6 8.5 12.6C7.8 13.15 6.95 13.45 6 13.45C5.85 13.45 5.7 13.45 5.5 13.4C6.4 13.95 7.45 14.3 8.6 14.3C12.3 14.3 14.3 11.25 14.3 8.6V8.35C14.7 8.2 15.05 7.85 15.3 7.45Z" fill="white"/>
</g>
</svg>
