<svg width="16" height="16" viewBox="0 0 16 16" fill="none" xmlns="http://www.w3.org/2000/svg">
<g id="uil:search">
<path id="Vector" d="M14.4728 13.5266L11.9994 11.0733C12.9595 9.87621 13.4245 8.3568 13.2987 6.82747C13.1729 5.29814 12.4659 3.87512 11.3231 2.85103C10.1804 1.82694 8.68865 1.27961 7.15473 1.32158C5.62081 1.36356 4.16126 1.99164 3.07621 3.0767C1.99116 4.16175 1.36307 5.6213 1.32109 7.15522C1.27912 8.68914 1.82645 10.1808 2.85054 11.3236C3.87464 12.4664 5.29765 13.1733 6.82698 13.2991C8.35631 13.4249 9.87572 12.96 11.0728 11.9999L13.5261 14.4533C13.5881 14.5158 13.6618 14.5654 13.7431 14.5992C13.8243 14.633 13.9114 14.6505 13.9994 14.6505C14.0875 14.6505 14.1746 14.633 14.2558 14.5992C14.3371 14.5654 14.4108 14.5158 14.4728 14.4533C14.5929 14.329 14.6601 14.1628 14.6601 13.9899C14.6601 13.817 14.5929 13.6509 14.4728 13.5266ZM7.33278 11.9999C6.4098 11.9999 5.50755 11.7262 4.74012 11.2135C3.97269 10.7007 3.37455 9.97185 3.02134 9.11913C2.66813 8.2664 2.57572 7.32809 2.75578 6.42285C2.93585 5.5176 3.3803 4.68608 4.03295 4.03344C4.68559 3.38079 5.51712 2.93634 6.42236 2.75627C7.3276 2.57621 8.26592 2.66862 9.11864 3.02183C9.97136 3.37504 10.7002 3.97318 11.213 4.74061C11.7258 5.50804 11.9994 6.41029 11.9994 7.33327C11.9994 8.57095 11.5078 9.75793 10.6326 10.6331C9.75744 11.5083 8.57046 11.9999 7.33278 11.9999Z" fill="#1B1D21"/>
</g>
</svg>
