<svg width="14" height="13" viewBox="0 0 14 13" fill="none" xmlns="http://www.w3.org/2000/svg">
<path id="Vector" d="M8.11976 5.66012C7.47006 5.66012 6.84697 5.91749 6.38756 6.37561C5.92816 6.83372 5.67007 7.45506 5.67007 8.10294V8.5915H4.69117C4.30135 8.5915 3.9275 8.74592 3.65185 9.02079C3.37621 9.29566 3.22135 9.66846 3.22135 10.0572C3.22135 10.4459 3.37621 10.8187 3.65185 11.0936C3.9275 11.3685 4.30135 11.5229 4.69117 11.5229H11.5503C11.9401 11.5229 12.314 11.3685 12.5896 11.0936C12.8653 10.8187 13.0201 10.4459 13.0201 10.0572C13.0201 9.66846 12.8653 9.29566 12.5896 9.02079C12.314 8.74592 11.9401 8.5915 11.5503 8.5915H10.5704L10.5695 8.10294C10.5695 7.45506 10.3114 6.83372 9.85195 6.37561C9.39255 5.91749 8.76946 5.66012 8.11976 5.66012ZM4.72547 7.61437C4.84343 6.80057 5.25147 6.0564 5.87484 5.51817C6.49822 4.97994 7.29519 4.68369 8.11976 4.68369C8.94433 4.68369 9.7413 4.97994 10.3647 5.51817C10.988 6.0564 11.3961 6.80057 11.5141 7.61437H11.5503C12.2 7.61437 12.8231 7.87174 13.2825 8.32986C13.7419 8.78797 14 9.40931 14 10.0572C14 10.7051 13.7419 11.3264 13.2825 11.7845C12.8231 12.2426 12.2 12.5 11.5503 12.5H4.69117C4.04147 12.5 3.41838 12.2426 2.95898 11.7845C2.49957 11.3264 2.24148 10.7051 2.24148 10.0572C2.24148 9.40931 2.49957 8.78797 2.95898 8.32986C3.41838 7.87174 4.04147 7.61437 4.69117 7.61437H4.72547ZM7.91202 1.57574C7.94226 1.51909 7.96102 1.45705 7.96722 1.39317C7.97341 1.32929 7.96693 1.26482 7.94814 1.20344C7.92935 1.14206 7.89862 1.08497 7.85771 1.03543C7.81679 0.985888 7.76649 0.94487 7.70968 0.914716C7.65287 0.884561 7.59066 0.86586 7.5266 0.859681C7.46254 0.853501 7.39788 0.859964 7.33633 0.878701C7.27478 0.897438 7.21752 0.928081 7.16784 0.968881C7.11817 1.00968 7.07703 1.05984 7.04679 1.11649L6.62937 1.90112C6.56829 2.01554 6.5553 2.14946 6.59325 2.27343C6.6312 2.39739 6.71697 2.50125 6.83171 2.56215C6.94645 2.62305 7.08075 2.636 7.20506 2.59816C7.32938 2.56032 7.43353 2.47479 7.4946 2.36037L7.91202 1.57574ZM4.21593 0.845828C4.19708 0.784428 4.16628 0.727332 4.1253 0.6778C4.08432 0.628267 4.03396 0.587269 3.97709 0.557145C3.92022 0.527021 3.85796 0.508362 3.79386 0.502233C3.72976 0.496103 3.66508 0.502624 3.60351 0.521423C3.54193 0.540221 3.48468 0.57093 3.435 0.611794C3.38533 0.652658 3.34422 0.702879 3.31401 0.759588C3.2838 0.816297 3.26509 0.878384 3.25894 0.942304C3.2528 1.00622 3.25934 1.07073 3.27819 1.13213L3.53981 1.98222C3.57933 2.10436 3.66544 2.20609 3.77956 2.26543C3.89367 2.32477 4.02661 2.33695 4.14966 2.29934C4.2727 2.26174 4.37597 2.17736 4.43714 2.06445C4.49832 1.95154 4.51248 1.81917 4.47658 1.69593L4.21593 0.845828ZM5.18111 2.72875C6.07868 2.72875 6.88119 3.12937 7.42013 3.76059C7.0461 3.81988 6.68144 3.92762 6.3354 4.08109C5.9577 3.80734 5.49439 3.67706 5.02892 3.71372C4.56344 3.75037 4.12638 3.95155 3.79645 4.28103C3.46652 4.6105 3.2654 5.04662 3.22931 5.51084C3.19322 5.97506 3.32453 6.43688 3.59959 6.81313C3.28553 6.91826 2.98846 7.06835 2.7177 7.2587C2.4291 6.81634 2.2656 6.3045 2.24447 5.77719C2.22333 5.24988 2.34534 4.72665 2.59762 4.26274C2.8499 3.79883 3.22309 3.41143 3.6778 3.14144C4.13252 2.87144 4.65189 2.72886 5.18111 2.72875ZM1.08522 2.93785C1.02841 2.9077 0.966199 2.889 0.90214 2.88282C0.83808 2.87664 0.773428 2.8831 0.711873 2.90184C0.650318 2.92058 0.593067 2.95122 0.543388 2.99202C0.493709 3.03282 0.452576 3.08298 0.422336 3.13963C0.392097 3.19628 0.373343 3.25832 0.367146 3.3222C0.36095 3.38608 0.367431 3.45055 0.38622 3.51193C0.40501 3.57331 0.435739 3.6304 0.476654 3.67994C0.51757 3.72948 0.567869 3.7705 0.624681 3.80065L1.41152 4.21691C1.52626 4.27781 1.66056 4.29077 1.78487 4.25292C1.90919 4.21508 2.01334 4.12955 2.07441 4.01513C2.13548 3.90072 2.14847 3.7668 2.11052 3.64283C2.07258 3.51887 1.9868 3.41501 1.87206 3.35411L1.08424 2.93785H1.08522ZM1.49285 7.29876C1.61533 7.25936 1.71735 7.17349 1.77685 7.05969C1.83636 6.9459 1.84857 6.81333 1.81086 6.69063C1.77315 6.56793 1.68854 6.46495 1.57531 6.40395C1.46208 6.34295 1.32933 6.32883 1.20575 6.36463L0.353255 6.62455C0.290889 6.64261 0.232748 6.67286 0.182213 6.71354C0.131677 6.75422 0.0897553 6.80451 0.0588857 6.86148C0.0280161 6.91846 0.00881448 6.98099 0.00239751 7.04544C-0.00401946 7.10988 0.0024763 7.17496 0.021507 7.23688C0.0405377 7.29879 0.0717235 7.35632 0.113251 7.40611C0.154778 7.45591 0.205819 7.49697 0.263404 7.52691C0.320989 7.55686 0.383969 7.57508 0.448683 7.58054C0.513396 7.58599 0.578551 7.57856 0.640359 7.55868L1.49285 7.29876Z" fill="#828792"/>
</svg>
