<svg width="150" height="150" viewBox="0 0 150 150" fill="none" xmlns="http://www.w3.org/2000/svg">
<rect width="150" height="150" rx="75" fill="black"/>
<path d="M89.7066 67.3096V99.2477H97.7774C108.556 99.2477 113.76 92.2388 113.76 83.3184C113.76 74.3981 108.556 67.3362 97.7774 67.3362H89.7066V67.3096ZM89.7066 42.2212V66.0884H95.3614C104.069 66.0884 107.414 60.7787 107.414 54.1416C107.414 47.5044 104.096 42.2212 95.3614 42.2212H89.7066ZM94.6445 41C104.813 41 113.468 44.6371 113.468 53.823C113.468 60.646 108.662 64.6017 102.344 66.3008C112.405 67.4955 120.874 73.4424 120.874 83.2918C120.874 94.3626 110.229 100.469 98.5472 100.469H83.043V41H94.6445Z" fill="white"/>
<path d="M30 104.477L60.6903 46.2291H33.5309V45.0078H68.4956L37.8318 103.256H69.3717V104.477H30Z" fill="white"/>
<path d="M98.0189 50.8775H79.8067V109.125H73.1959V50.8775H54.957V49.6562H98.0189V50.8775Z" fill="white"/>
<circle cx="75" cy="75" r="64.5" stroke="white" stroke-width="3"/>
</svg>
