<svg width="300" height="105" viewBox="0 0 300 105" fill="none" xmlns="http://www.w3.org/2000/svg">
<g clip-path="url(#clip0_686_74)">
<path d="M78.4992 43.0029V82.6156H88.5095C101.878 82.6156 108.332 73.9225 108.332 62.8586C108.332 51.7947 101.878 43.0358 88.5095 43.0358H78.4992V43.0029ZM78.4992 11.8858V41.4882H85.5129C96.3134 41.4882 100.462 34.9026 100.462 26.6706C100.462 18.4385 96.3464 11.8858 85.5129 11.8858H78.4992ZM84.6238 10.3711C97.2352 10.3711 107.97 14.8822 107.97 26.2754C107.97 34.7379 102.01 39.6442 94.1731 41.7517C106.653 43.2334 117.157 50.6093 117.157 62.8256C117.157 76.5566 103.953 84.1302 89.4642 84.1302H70.2344V10.3711H84.6238Z" fill="white"/>
<path d="M4.44531 89.1009L42.5104 16.8565H8.82474V15.3418H52.1913L14.1591 87.5864H53.2779V89.1009H4.44531Z" fill="white"/>
<path d="M88.8081 22.6202H66.2194V94.8645H58.0201V22.6202H35.3984V21.1055H88.8081V22.6202Z" fill="white"/>
<rect x="151.5" y="17.5" width="138" height="68" stroke="white" stroke-width="5"/>
<path d="M184.478 25.4082C186.774 25.4082 188.653 25.7558 190.114 26.4509C191.61 27.1112 192.932 27.8932 194.08 28.7969C194.775 29.3182 195.297 29.3877 195.645 29.0054C196.028 28.5884 196.289 27.6326 196.428 26.1381H197.628C197.558 27.4588 197.506 29.0576 197.471 30.9344C197.437 32.7764 197.419 35.2441 197.419 38.3373H196.219C195.976 36.8081 195.732 35.5569 195.488 34.5837C195.28 33.6106 194.984 32.7764 194.601 32.0813C194.253 31.3862 193.766 30.7085 193.14 30.0481C192.131 28.7969 190.896 27.8932 189.435 27.3371C187.974 26.7811 186.426 26.503 184.791 26.503C183.017 26.503 181.451 26.9548 180.095 27.8585C178.738 28.7274 177.59 29.9786 176.651 31.6121C175.746 33.2456 175.05 35.1746 174.563 37.3989C174.076 39.6233 173.833 42.0562 173.833 44.6977C173.833 47.4086 174.094 49.8763 174.616 52.1006C175.137 54.2902 175.885 56.1844 176.859 57.7832C177.868 59.3472 179.068 60.5637 180.46 61.4326C181.886 62.2667 183.469 62.6838 185.209 62.6838C186.635 62.6838 188.113 62.4057 189.644 61.8496C191.175 61.2588 192.392 60.3725 193.297 59.1908C194.271 58.1481 194.932 56.9838 195.28 55.6979C195.662 54.3771 195.976 52.5872 196.219 50.3281H197.419C197.419 53.5256 197.437 56.1149 197.471 58.096C197.506 60.0423 197.558 61.6932 197.628 63.0487H196.428C196.289 61.5542 196.045 60.6158 195.697 60.2335C195.384 59.8512 194.845 59.9033 194.08 60.3899C192.792 61.2935 191.418 62.0929 189.957 62.788C188.531 63.4484 186.687 63.7786 184.426 63.7786C180.982 63.7786 177.973 63.0313 175.398 61.5368C172.824 60.0423 170.824 57.8875 169.397 55.0723C167.971 52.257 167.258 48.8683 167.258 44.9062C167.258 41.0135 167.988 37.6075 169.449 34.688C170.945 31.7685 172.98 29.492 175.555 27.8585C178.129 26.225 181.104 25.4082 184.478 25.4082Z" fill="white"/>
<path d="M245.288 26.1381V27.1807C244.105 27.2155 243.218 27.3545 242.627 27.5978C242.035 27.8064 241.635 28.2234 241.426 28.849C241.253 29.4399 241.166 30.3783 241.166 31.6642V57.5225C241.166 58.7737 241.253 59.7121 241.426 60.3377C241.635 60.9633 242.035 61.3804 242.627 61.589C243.218 61.7975 244.105 61.9365 245.288 62.006V63.0487C244.418 62.9792 243.34 62.9444 242.053 62.9444C240.766 62.9097 239.461 62.8923 238.139 62.8923C236.678 62.8923 235.304 62.9097 234.017 62.9444C232.729 62.9444 231.703 62.9792 230.938 63.0487V62.006C232.121 61.9365 233.008 61.7975 233.599 61.589C234.225 61.3804 234.643 60.9633 234.851 60.3377C235.06 59.7121 235.165 58.7737 235.165 57.5225V29.0054L235.426 29.1097L222.589 63.2572H221.754L208.291 29.4746V56.1671C208.291 57.6268 208.395 58.7737 208.604 59.6079C208.812 60.4073 209.265 60.9807 209.961 61.3283C210.656 61.6758 211.717 61.9018 213.144 62.006V63.0487C212.483 62.9792 211.63 62.9444 210.587 62.9444C209.578 62.9097 208.621 62.8923 207.717 62.8923C206.847 62.8923 205.977 62.9097 205.108 62.9444C204.238 62.9444 203.525 62.9792 202.968 63.0487V62.006C204.116 61.9018 204.986 61.6932 205.577 61.3804C206.169 61.0329 206.569 60.4594 206.777 59.66C206.986 58.8606 207.09 57.7658 207.09 56.3756V31.6642C207.09 30.3783 206.986 29.4399 206.777 28.849C206.569 28.2234 206.169 27.8064 205.577 27.5978C204.986 27.3545 204.116 27.2155 202.968 27.1807V26.1381C203.525 26.1728 204.238 26.2076 205.108 26.2423C205.977 26.2771 206.847 26.2945 207.717 26.2945C208.726 26.2945 209.734 26.2771 210.743 26.2423C211.787 26.2076 212.674 26.1728 213.405 26.1381L224.937 55.75L223.945 56.4277L235.269 26.2945C235.721 26.2945 236.191 26.2945 236.678 26.2945C237.165 26.2945 237.652 26.2945 238.139 26.2945C239.461 26.2945 240.766 26.2771 242.053 26.2423C243.34 26.2076 244.418 26.1728 245.288 26.1381Z" fill="white"/>
<path d="M261.133 25.5125C262.977 25.5125 264.386 25.721 265.36 26.1381C266.334 26.5551 267.186 27.007 267.917 27.4936C268.334 27.7368 268.665 27.928 268.908 28.067C269.187 28.1713 269.447 28.2234 269.691 28.2234C270.039 28.2234 270.282 28.0323 270.422 27.65C270.595 27.2676 270.735 26.6942 270.839 25.9295H272.039C272.004 26.5551 271.952 27.3024 271.883 28.1713C271.848 29.0054 271.813 30.1176 271.778 31.5078C271.778 32.8981 271.778 34.7228 271.778 36.9819H270.578C270.474 35.2788 270.091 33.6279 269.43 32.0292C268.804 30.4304 267.865 29.1271 266.612 28.1192C265.395 27.1112 263.829 26.6073 261.916 26.6073C260.142 26.6073 258.663 27.146 257.48 28.2234C256.332 29.2661 255.758 30.6563 255.758 32.3941C255.758 33.9234 256.141 35.2093 256.906 36.252C257.672 37.2599 258.715 38.2157 260.037 39.1194C261.394 39.9882 262.925 40.9614 264.629 42.0388C266.369 43.151 267.934 44.2632 269.326 45.3754C270.717 46.4528 271.813 47.6519 272.613 48.9726C273.413 50.2933 273.813 51.8921 273.813 53.7689C273.813 56.028 273.274 57.9048 272.196 59.3993C271.152 60.8591 269.743 61.9539 267.969 62.6838C266.195 63.4136 264.247 63.7786 262.125 63.7786C260.176 63.7786 258.628 63.57 257.48 63.153C256.332 62.7359 255.358 62.3014 254.558 61.8496C253.793 61.363 253.201 61.1198 252.784 61.1198C252.436 61.1198 252.175 61.3109 252.001 61.6932C251.862 62.0755 251.74 62.649 251.636 63.4136H250.436C250.505 62.649 250.54 61.7627 250.54 60.7548C250.575 59.7121 250.592 58.3567 250.592 56.6884C250.627 55.0201 250.644 52.9174 250.644 50.3802H251.845C251.984 52.5351 252.366 54.5509 252.993 56.4277C253.654 58.3045 254.645 59.8164 255.967 60.9634C257.324 62.0755 259.115 62.6316 261.342 62.6316C262.525 62.6316 263.62 62.4057 264.629 61.9539C265.638 61.5021 266.456 60.7896 267.082 59.8164C267.708 58.8432 268.021 57.592 268.021 56.0628C268.021 54.6378 267.673 53.3866 266.977 52.3092C266.317 51.2317 265.377 50.2412 264.16 49.3375C262.977 48.3991 261.585 47.4434 259.985 46.4702C258.35 45.4275 256.819 44.3849 255.393 43.3422C253.967 42.2995 252.819 41.0831 251.949 39.6928C251.114 38.3026 250.697 36.6517 250.697 34.7401C250.697 32.62 251.184 30.8822 252.158 29.5268C253.167 28.1713 254.454 27.1634 256.019 26.503C257.619 25.8427 259.324 25.5125 261.133 25.5125Z" fill="white"/>
<path d="M172.674 70.7793V77.6849H171.619V71.6695H168.314V77.6849H167.258V70.7793H172.674Z" fill="white"/>
<path d="M174.887 77.6849H173.763L176.29 70.7793H177.513L180.04 77.6849H178.916L176.931 72.0336H176.876L174.887 77.6849ZM175.076 74.9806H178.724V75.8573H175.076V74.9806Z" fill="white"/>
<path d="M181.054 77.6849V70.7793H182.113V73.7803H185.614V70.7793H186.676V77.6849H185.614V74.6738H182.113V77.6849H181.054Z" fill="white"/>
<path d="M188.219 77.6849V70.7793H192.621V71.6762H189.278V73.7803H192.391V74.6738H189.278V76.788H192.662V77.6849H188.219Z" fill="white"/>
<path d="M193.505 77.6849V76.7812L193.71 76.7745C193.989 76.7677 194.209 76.6744 194.369 76.4946C194.531 76.3148 194.648 76.0248 194.722 75.6247C194.797 75.2245 194.847 74.6907 194.872 74.023L194.992 70.7793H199.432V77.6849H198.386V71.6627H195.99L195.88 74.2995C195.851 75.0391 195.775 75.6606 195.654 76.1642C195.533 76.6655 195.327 77.0442 195.037 77.3005C194.749 77.5568 194.339 77.6849 193.806 77.6849H193.505Z" fill="white"/>
<path d="M201.719 73.5645H203.611C204.132 73.5645 204.576 73.6476 204.941 73.814C205.307 73.9803 205.586 74.2152 205.778 74.5187C205.972 74.8222 206.068 75.1796 206.066 75.591C206.068 76.0023 205.972 76.3654 205.778 76.6801C205.586 76.9948 205.307 77.2409 204.941 77.4185C204.576 77.5961 204.132 77.6849 203.611 77.6849H200.982V70.7793H202.044V76.8082H203.611C203.915 76.8082 204.171 76.7498 204.379 76.6329C204.589 76.516 204.748 76.3642 204.856 76.1777C204.965 75.9911 205.02 75.791 205.02 75.5775C205.02 75.2673 204.899 75.0009 204.657 74.7783C204.414 74.5535 204.066 74.4411 203.611 74.4411H201.719V73.5645Z" fill="white"/>
<path d="M210.409 77.7793V76.8621H210.831C211.007 76.8621 211.152 76.8329 211.266 76.7745C211.383 76.716 211.478 76.6374 211.551 76.5384C211.626 76.4373 211.689 76.3271 211.74 76.208L211.839 75.9619L209.371 70.7793H210.495L212.336 74.7716L213.975 70.7793H215.086L212.658 76.4879C212.555 76.7172 212.437 76.9296 212.302 77.1252C212.169 77.3207 211.992 77.4792 211.77 77.6006C211.549 77.7197 211.255 77.7793 210.889 77.7793H210.409Z" fill="white"/>
<path d="M221.576 70.7793V77.6849H220.52V71.6695H217.215V77.6849H216.159V70.7793H221.576Z" fill="white"/>
<path d="M223.196 77.6849V70.7793H225.699C226.245 70.7793 226.697 70.8771 227.056 71.0726C227.415 71.2682 227.684 71.5357 227.862 71.8752C228.04 72.2123 228.129 72.5922 228.129 73.0148C228.129 73.4397 228.039 73.8218 227.858 74.1613C227.68 74.4985 227.41 74.766 227.049 74.9638C226.69 75.1594 226.239 75.2571 225.695 75.2571H223.974V74.3737H225.599C225.944 74.3737 226.224 74.3153 226.439 74.1984C226.654 74.0792 226.812 73.9174 226.912 73.7128C227.013 73.5083 227.063 73.2756 227.063 73.0148C227.063 72.7541 227.013 72.5226 226.912 72.3202C226.812 72.1179 226.653 71.9595 226.436 71.8448C226.221 71.7302 225.937 71.6728 225.585 71.6728H224.255V77.6849H223.196Z" fill="white"/>
<path d="M229.219 77.6849H228.095L230.622 70.7793H231.845L234.372 77.6849H233.248L231.263 72.0336H231.208L229.219 77.6849ZM229.408 74.9806H233.056V75.8573H229.408V74.9806Z" fill="white"/>
<path d="M235.386 77.6849V70.7793H237.957C238.455 70.7793 238.868 70.8602 239.195 71.0221C239.522 71.1817 239.766 71.3986 239.928 71.6728C240.091 71.9448 240.172 72.2517 240.172 72.5934C240.172 72.8811 240.118 73.1239 240.011 73.3217C239.903 73.5173 239.759 73.6746 239.579 73.7937C239.4 73.9106 239.204 73.9961 238.989 74.05V74.1174C239.222 74.1287 239.45 74.2029 239.671 74.34C239.895 74.4749 240.08 74.6671 240.227 74.9166C240.373 75.1661 240.446 75.4696 240.446 75.827C240.446 76.1799 240.362 76.4969 240.192 76.7779C240.026 77.0566 239.767 77.278 239.418 77.4421C239.068 77.604 238.621 77.6849 238.077 77.6849H235.386ZM236.445 76.7913H237.974C238.482 76.7913 238.845 76.6947 239.064 76.5014C239.284 76.308 239.394 76.0664 239.394 75.7764C239.394 75.5584 239.338 75.3583 239.226 75.1762C239.114 74.9941 238.954 74.8491 238.746 74.7412C238.54 74.6333 238.295 74.5794 238.012 74.5794H236.445V76.7913ZM236.445 73.7668H237.865C238.102 73.7668 238.316 73.7218 238.506 73.6319C238.698 73.542 238.85 73.4161 238.962 73.2542C239.076 73.0902 239.133 72.8968 239.133 72.6743C239.133 72.3888 239.031 72.1494 238.828 71.9561C238.625 71.7628 238.313 71.6661 237.892 71.6661H236.445V73.7668Z" fill="white"/>
<path d="M241.171 77.6849V76.7812L241.377 76.7745C241.656 76.7677 241.875 76.6744 242.035 76.4946C242.197 76.3148 242.315 76.0248 242.388 75.6247C242.464 75.2245 242.514 74.6907 242.539 74.023L242.659 70.7793H247.099V77.6849H246.053V71.6627H243.657L243.547 74.2995C243.517 75.0391 243.442 75.6606 243.321 76.1642C243.2 76.6655 242.994 77.0442 242.704 77.3005C242.416 77.5568 242.005 77.6849 241.473 77.6849H241.171Z" fill="white"/>
<path d="M248.641 77.6849V70.7793H253.043V71.6762H249.701V73.7803H252.814V74.6738H249.701V76.788H253.084V77.6849H248.641Z" fill="white"/>
<path d="M254.458 77.6849V70.7793H255.518V73.7803H259.018V70.7793H260.081V77.6849H259.018V74.6738H255.518V77.6849H254.458Z" fill="white"/>
<path d="M261.623 70.7793H262.672V75.8506H262.738L266.31 70.7793H267.29V77.6849H266.231V72.6203H266.166L262.6 77.6849H261.623V70.7793Z" fill="white"/>
<path d="M273.813 77.6849H272.751V71.6728H271.42C271.073 71.6728 270.791 71.7245 270.574 71.8279C270.357 71.9291 270.198 72.0752 270.097 72.2663C269.997 72.4574 269.946 72.6833 269.946 72.944C269.946 73.2025 269.997 73.424 270.097 73.6083C270.198 73.7926 270.355 73.9331 270.57 74.0298C270.785 74.1264 271.065 74.1748 271.41 74.1748H273.21V75.0717H271.311C270.769 75.0717 270.318 74.9829 269.957 74.8053C269.598 74.6277 269.328 74.3793 269.148 74.0601C268.969 73.7387 268.88 73.3666 268.88 72.944C268.88 72.5192 268.969 72.1449 269.148 71.8212C269.326 71.4953 269.594 71.2401 269.953 71.0558C270.314 70.8715 270.766 70.7793 271.307 70.7793H273.813V77.6849ZM270.347 74.5693H271.52L269.816 77.6849H268.613L270.347 74.5693Z" fill="white"/>
<rect x="-41.5" y="1.5" width="382" height="102" stroke="white" stroke-width="3"/>
</g>
<defs>
<clipPath id="clip0_686_74">
<rect width="300" height="105" fill="white"/>
</clipPath>
</defs>
</svg>
