<svg width="35" height="35" viewBox="0 0 35 35" fill="none" xmlns="http://www.w3.org/2000/svg">
<rect width="35" height="35" rx="17.5" fill="#D9B770"/>
<path d="M21.3674 15.7713V23.9913H23.4446C26.2187 23.9913 27.5579 22.1874 27.5579 19.8916C27.5579 17.5957 26.2187 15.7782 23.4446 15.7782H21.3674V15.7713ZM21.3674 9.31431V15.457H22.8228C25.0639 15.457 25.9248 14.0905 25.9248 12.3823C25.9248 10.674 25.0708 9.31431 22.8228 9.31431H21.3674ZM22.6382 9C25.2552 9 27.4828 9.9361 27.4828 12.3003C27.4828 14.0563 26.246 15.0744 24.6198 15.5117C27.2094 15.8192 29.3891 17.3497 29.3891 19.8847C29.3891 22.734 26.6492 24.3056 23.6427 24.3056H19.6523V9H22.6382Z" fill="white"/>
<path d="M6 25.3388L13.8988 10.3475H6.90877V10.0332H15.9077L8.01569 25.0245H16.1331V25.3388H6Z" fill="white"/>
<path d="M23.5048 11.5409H18.8175V26.5321H17.116V11.5409H12.4219V11.2266H23.5048V11.5409Z" fill="white"/>
</svg>
