<svg width="60" height="60" viewBox="0 0 60 60" fill="none" xmlns="http://www.w3.org/2000/svg">
<rect width="60" height="60" fill="white"/>
<path d="M37.6174 18.2758V35.0769H41.8616C47.5296 35.0769 50.266 31.3898 50.266 26.6972C50.266 22.0047 47.5296 18.2898 41.8616 18.2898H37.6174V18.2758ZM37.6174 5.07798V17.6333H40.5911C45.1703 17.6333 46.9293 14.8402 46.9293 11.3487C46.9293 7.85719 45.1843 5.07798 40.5911 5.07798H37.6174ZM40.2141 4.43555C45.5611 4.43555 50.1125 6.34887 50.1125 11.1811C50.1125 14.7703 47.5856 16.8513 44.2628 17.7451C49.5539 18.3736 54.0074 21.5019 54.0074 26.6832C54.0074 32.507 48.4093 35.7192 42.2664 35.7192H34.1133V4.43555H40.2141Z" fill="black"/>
<path d="M6.21875 37.8286L22.3576 7.18736H8.07554V6.54492H26.4621L10.3372 37.1862H26.9228V37.8286H6.21875Z" fill="black"/>
<path d="M41.9845 9.63072H32.4073V40.2719H28.931V9.63072H19.3398V8.98828H41.9845V9.63072Z" fill="black"/>
<path d="M14.457 53.1574V45.2148L19.2429 49.8853C19.3732 50.0176 19.5053 50.1585 19.639 50.308C19.7728 50.4577 19.9135 50.6264 20.0611 50.8143V45.5175H21.1933V53.4548L16.3096 48.7007C16.1792 48.5721 16.0523 48.4364 15.9288 48.2937C15.8087 48.1511 15.6938 48.0015 15.584 47.8449V53.1574H14.457Z" fill="black"/>
<path d="M23.875 53.1574V45.5176H28.0794V46.5718H25.0997V48.4868H28.0794V49.5774H25.0997V52.0459H28.0794V53.1574H23.875Z" fill="black"/>
<path d="M29.5391 45.5175H30.7484L32.1739 49.374C32.2664 49.628 32.3436 49.8506 32.4054 50.0419C32.4706 50.2333 32.5272 50.4125 32.5752 50.5795C32.6954 50.1759 32.8205 49.781 32.9508 49.3949C32.9681 49.3462 32.98 49.313 32.9869 49.2958L34.4999 45.2148L36.0951 49.374C36.1707 49.5757 36.2409 49.7776 36.3062 49.9792C36.3747 50.1811 36.4382 50.3847 36.4966 50.5898C36.5308 50.4334 36.5772 50.2611 36.6355 50.0732C36.6937 49.8853 36.7693 49.6627 36.8618 49.4053L38.2771 45.5175H39.4967L36.5789 53.4548L34.86 49.0974C34.7846 48.9026 34.716 48.7164 34.6542 48.5391C34.5924 48.3581 34.5375 48.1877 34.4896 48.0276C34.4312 48.2329 34.3729 48.426 34.3145 48.6068C34.2562 48.7843 34.1963 48.9547 34.1345 49.1183L32.4466 53.4548L29.5391 45.5175Z" fill="black"/>
<path d="M40.8516 51.6287L41.8293 51.1695C41.922 51.5104 42.0918 51.7713 42.3388 51.9523C42.5858 52.1296 42.9014 52.2184 43.2856 52.2184C43.6493 52.2184 43.9374 52.1158 44.1503 51.9105C44.3664 51.7051 44.4745 51.4304 44.4745 51.0859C44.4745 50.6371 44.1073 50.237 43.3732 49.8856C43.2703 49.8335 43.1914 49.7953 43.1365 49.771C42.3062 49.3603 41.7521 48.9899 41.4742 48.6594C41.1997 48.3255 41.0625 47.9183 41.0625 47.4382C41.0625 46.8156 41.2702 46.3112 41.6853 45.9249C42.1037 45.5388 42.6509 45.3457 43.3269 45.3457C43.8826 45.3457 44.3474 45.4552 44.7215 45.6745C45.0954 45.8902 45.3545 46.2015 45.4984 46.6085L44.5413 47.1095C44.3904 46.8694 44.224 46.6938 44.0421 46.5824C43.8637 46.4711 43.658 46.4155 43.4246 46.4155C43.0952 46.4155 42.8329 46.5025 42.6373 46.6764C42.4452 46.8503 42.349 47.0834 42.349 47.3756C42.349 47.8349 42.7745 48.2628 43.6254 48.6594C43.6904 48.6907 43.7419 48.715 43.7797 48.7325C44.5242 49.0802 45.0353 49.4213 45.3132 49.7553C45.5911 50.0858 45.7301 50.4997 45.7301 50.9972C45.7301 51.7209 45.5053 52.2966 45.0558 52.7245C44.6065 53.1489 43.9992 53.3611 43.2342 53.3611C42.5926 53.3611 42.0661 53.2116 41.6544 52.9124C41.2462 52.6133 40.9784 52.1854 40.8516 51.6287Z" fill="black"/>
<path fill-rule="evenodd" clip-rule="evenodd" d="M53.5461 43.6767H6.63757V55.1288H53.5461V43.6767ZM6.21875 43.2578V55.5478H53.9651V43.2578H6.21875Z" fill="black"/>
</svg>
