<svg class="">

    <symbol id="material-symbols_menu-rounded" width="16" height="16" viewBox="0 0 16 16"  xmlns="http://www.w3.org/2000/svg">
        <g id="material-symbols:menu-rounded">
            <path id="Vector" d="M2.66667 12C2.47778 12 2.31934 11.936 2.19134 11.808C2.06334 11.68 1.99956 11.5218 2 11.3333C2 11.1444 2.064 10.986 2.192 10.858C2.32 10.73 2.47822 10.6662 2.66667 10.6667H13.3333C13.5222 10.6667 13.6807 10.7307 13.8087 10.8587C13.9367 10.9867 14.0004 11.1449 14 11.3333C14 11.5222 13.936 11.6807 13.808 11.8087C13.68 11.9367 13.5218 12.0004 13.3333 12H2.66667ZM2.66667 8.66667C2.47778 8.66667 2.31934 8.60267 2.19134 8.47467C2.06334 8.34667 1.99956 8.18845 2 8C2 7.81111 2.064 7.65267 2.192 7.52467C2.32 7.39667 2.47822 7.33289 2.66667 7.33334H13.3333C13.5222 7.33334 13.6807 7.39734 13.8087 7.52534C13.9367 7.65334 14.0004 7.81156 14 8C14 8.18889 13.936 8.34734 13.808 8.47534C13.68 8.60334 13.5218 8.66711 13.3333 8.66667H2.66667ZM2.66667 5.33334C2.47778 5.33334 2.31934 5.26934 2.19134 5.14134C2.06334 5.01334 1.99956 4.85511 2 4.66667C2 4.47778 2.064 4.31934 2.192 4.19134C2.32 4.06334 2.47822 3.99956 2.66667 4H13.3333C13.5222 4 13.6807 4.064 13.8087 4.192C13.9367 4.32 14.0004 4.47822 14 4.66667C14 4.85556 13.936 5.014 13.808 5.142C13.68 5.27 13.5218 5.33378 13.3333 5.33334H2.66667Z" />
        </g>
    </symbol>

    <symbol id="dollar" width="7" height="12" viewBox="0 0 7 12" fill="#828792" xmlns="http://www.w3.org/2000/svg">
        <path id="Vector" d="M0 8H1.33333C1.33333 8.72 2.24667 9.33333 3.33333 9.33333C4.42 9.33333 5.33333 8.72 5.33333 8C5.33333 7.26667 4.64 7 3.17333 6.64667C1.76 6.29333 0 5.85333 0 4C0 2.80667 0.98 1.79333 2.33333 1.45333V0H4.33333V1.45333C5.68667 1.79333 6.66667 2.80667 6.66667 4H5.33333C5.33333 3.28 4.42 2.66667 3.33333 2.66667C2.24667 2.66667 1.33333 3.28 1.33333 4C1.33333 4.73333 2.02667 5 3.49333 5.35333C4.90667 5.70667 6.66667 6.14667 6.66667 8C6.66667 9.19333 5.68667 10.2067 4.33333 10.5467V12H2.33333V10.5467C0.98 10.2067 0 9.19333 0 8Z" />
    </symbol>

    <symbol id="euro" width="17" height="16" fill="#828792" viewBox="0 0 17 16" xmlns="http://www.w3.org/2000/svg">
        <g id="mingcute:currency-euro-2-line" clip-path="url(#clip0_190_12591)">
            <g id="Group">
                <path id="Vector" d="M6.48634 6.00033C7.12501 4.79166 8.32101 4.00033 9.64701 4.00033C10.6237 4.00033 11.5183 4.42166 12.1817 5.12433C12.3044 5.24686 12.47 5.31678 12.6433 5.31925C12.8167 5.32171 12.9842 5.25653 13.1103 5.13753C13.2365 5.01853 13.3112 4.85507 13.3188 4.68184C13.3264 4.50861 13.2662 4.33924 13.151 4.20966C12.2577 3.26299 11.0217 2.66699 9.64701 2.66699C7.52767 2.66699 5.76234 4.06499 5.02967 6.00033H3.99967C3.82286 6.00033 3.65329 6.07056 3.52827 6.19559C3.40325 6.32061 3.33301 6.49018 3.33301 6.66699C3.33301 6.8438 3.40325 7.01337 3.52827 7.1384C3.65329 7.26342 3.82286 7.33366 3.99967 7.33366H4.70501C4.65364 7.77662 4.65364 8.22403 4.70501 8.66699H3.99967C3.82286 8.66699 3.65329 8.73723 3.52827 8.86225C3.40325 8.98728 3.33301 9.15685 3.33301 9.33366C3.33301 9.51047 3.40325 9.68004 3.52827 9.80506C3.65329 9.93009 3.82286 10.0003 3.99967 10.0003H5.02967C5.76234 11.9357 7.52767 13.3337 9.64701 13.3337C11.0217 13.3337 12.2583 12.7377 13.151 11.791C13.2662 11.6614 13.3264 11.492 13.3188 11.3188C13.3112 11.1456 13.2365 10.9821 13.1103 10.8631C12.9842 10.7441 12.8167 10.6789 12.6433 10.6814C12.47 10.6839 12.3044 10.7538 12.1817 10.8763C11.5183 11.579 10.6237 12.0003 9.64634 12.0003C8.32034 12.0003 7.12434 11.209 6.48567 10.0003H9.33301C9.50982 10.0003 9.67939 9.93009 9.80441 9.80506C9.92944 9.68004 9.99967 9.51047 9.99967 9.33366C9.99967 9.15685 9.92944 8.98728 9.80441 8.86225C9.67939 8.73723 9.50982 8.66699 9.33301 8.66699H6.04967C5.9841 8.22497 5.9841 7.77568 6.04967 7.33366H9.33301C9.50982 7.33366 9.67939 7.26342 9.80441 7.1384C9.92944 7.01337 9.99967 6.8438 9.99967 6.66699C9.99967 6.49018 9.92944 6.32061 9.80441 6.19559C9.67939 6.07056 9.50982 6.00033 9.33301 6.00033H6.48634Z" />
            </g>
        </g>
        <defs>
            <clipPath id="clip0_190_12591">
                <rect width="16" height="16"  transform="translate(0.666504)"/>
            </clipPath>
        </defs>
    </symbol>



    <symbol id="round-button" width="26" height="26" viewBox="0 0 26 26" xmlns="http://www.w3.org/2000/svg">
        <g id="round-button">
            <rect id="sunmoon" width="26" height="26" rx="13" transform="matrix(-1 3.95796e-09 4.03444e-09 1 26 0)" />
        </g>
    </symbol>

    <symbol id="round_left" width="24" height="24" viewBox="0 0 24 24" xmlns="http://www.w3.org/2000/svg">
        <g id="material-symbols:arrow-right">
            <path id="Vector" d="M14 17V7L9 12L14 17Z" />
            <rect x="-0.5" y="0.5" width="23" height="23" rx="11.5" transform="matrix(-1 0 0 1 23 0)" stroke="black"/>
        </g>
    </symbol>

    <symbol id="round_right" width="24" height="24" viewBox="0 0 24 24" xmlns="http://www.w3.org/2000/svg">
        <g id="material-symbols:arrow-right">
            <path id="Vector" d="M10 17V7L15 12L10 17Z" />
            <rect x="0.5" y="0.5" width="23" height="23" rx="11.5" stroke="black"/>
        </g>
    </symbol>

    <symbol id="rubl" width="17" height="16" viewBox="0 0 17 16" fill="#828792" xmlns="http://www.w3.org/2000/svg">
        <g id="material-symbols:currency-ruble-rounded">
            <path id="Vector" d="M6 14C5.81111 14 5.65267 13.936 5.52467 13.808C5.39667 13.68 5.33289 13.5218 5.33334 13.3333V12H4.66667C4.47778 12 4.31934 11.936 4.19134 11.808C4.06334 11.68 3.99956 11.5218 4 11.3333C4 11.1444 4.064 10.986 4.192 10.858C4.32 10.73 4.47822 10.6662 4.66667 10.6667H5.33334V9.33334H4.66667C4.47778 9.33334 4.31934 9.26934 4.19134 9.14134C4.06334 9.01334 3.99956 8.85511 4 8.66667C4 8.47778 4.064 8.31934 4.192 8.19134C4.32 8.06334 4.47822 7.99956 4.66667 8H5.33334V2.66667C5.33334 2.47778 5.39734 2.31934 5.52534 2.19134C5.65334 2.06334 5.81156 1.99956 6 2H9.66667C10.6889 2 11.5556 2.35556 12.2667 3.06667C12.9778 3.77778 13.3333 4.64445 13.3333 5.66667C13.3333 6.68889 12.9778 7.55556 12.2667 8.26667C11.5556 8.97778 10.6889 9.33334 9.66667 9.33334H6.66667V10.6667H8.66667C8.85556 10.6667 9.014 10.7307 9.142 10.8587C9.27 10.9867 9.33378 11.1449 9.33334 11.3333C9.33334 11.5222 9.26934 11.6807 9.14134 11.8087C9.01334 11.9367 8.85511 12.0004 8.66667 12H6.66667V13.3333C6.66667 13.5222 6.60267 13.6807 6.47467 13.8087C6.34667 13.9367 6.18845 14.0004 6 14ZM6.66667 8H9.66667C10.3111 8 10.8611 7.77222 11.3167 7.31667C11.7722 6.86111 12 6.31111 12 5.66667C12 5.02222 11.7722 4.47222 11.3167 4.01667C10.8611 3.56111 10.3111 3.33334 9.66667 3.33334H6.66667V8Z" />
        </g>
    </symbol>

    <symbol id="socials_instagram" width="10" height="10" viewBox="0 0 10 10" xmlns="http://www.w3.org/2000/svg">
        <g id="ph:instagram-logo-fill" clip-path="url(#clip0_190_12608)">
            <path id="Vector" d="M6.875 0.9375H3.125C2.54503 0.93812 1.98899 1.16879 1.57889 1.57889C1.16879 1.98899 0.93812 2.54503 0.9375 3.125V6.875C0.93812 7.45497 1.16879 8.01101 1.57889 8.42111C1.98899 8.83121 2.54503 9.06188 3.125 9.0625H6.875C7.45497 9.06188 8.01101 8.83121 8.42111 8.42111C8.83121 8.01101 9.06188 7.45497 9.0625 6.875V3.125C9.06188 2.54503 8.83121 1.98899 8.42111 1.57889C8.01101 1.16879 7.45497 0.93812 6.875 0.9375ZM5 6.875C4.62916 6.875 4.26665 6.76503 3.95831 6.55901C3.64996 6.35298 3.40964 6.06014 3.26773 5.71753C3.12581 5.37492 3.08868 4.99792 3.16103 4.63421C3.23338 4.27049 3.41195 3.9364 3.67417 3.67417C3.9364 3.41195 4.27049 3.23338 4.63421 3.16103C4.99792 3.08868 5.37492 3.12581 5.71753 3.26773C6.06014 3.40964 6.35298 3.64996 6.55901 3.95831C6.76503 4.26665 6.875 4.62916 6.875 5C6.87448 5.49712 6.67677 5.97374 6.32525 6.32525C5.97374 6.67677 5.49712 6.87448 5 6.875ZM7.34375 3.125C7.25104 3.125 7.16041 3.09751 7.08333 3.046C7.00624 2.99449 6.94616 2.92129 6.91068 2.83563C6.8752 2.74998 6.86592 2.65573 6.88401 2.5648C6.90209 2.47387 6.94674 2.39035 7.01229 2.32479C7.07785 2.25924 7.16137 2.21459 7.2523 2.19651C7.34323 2.17842 7.43748 2.1877 7.52313 2.22318C7.60879 2.25866 7.68199 2.31874 7.7335 2.39583C7.78501 2.47291 7.8125 2.56354 7.8125 2.65625C7.8125 2.78057 7.76311 2.8998 7.67521 2.98771C7.5873 3.07561 7.46807 3.125 7.34375 3.125ZM6.25 5C6.25 5.24723 6.17669 5.4889 6.03934 5.69446C5.90199 5.90002 5.70676 6.06024 5.47835 6.15485C5.24995 6.24946 4.99861 6.27421 4.75614 6.22598C4.51366 6.17775 4.29093 6.0587 4.11612 5.88388C3.9413 5.70907 3.82225 5.48634 3.77402 5.24386C3.72579 5.00139 3.75054 4.75005 3.84515 4.52165C3.93976 4.29324 4.09998 4.09801 4.30554 3.96066C4.5111 3.82331 4.75277 3.75 5 3.75C5.33152 3.75 5.64946 3.8817 5.88388 4.11612C6.1183 4.35054 6.25 4.66848 6.25 5Z" fill="white"/>
        </g>
        <defs>
            <clipPath id="clip0_190_12608">
                <rect width="10" height="10" fill="white"/>
            </clipPath>
        </defs>
    </symbol>

    <symbol id="socials_facebook" width="20" height="20" viewBox="0 0 20 20" xmlns="http://www.w3.org/2000/svg">
        <g id="socials">
            <rect id="Rectangle 1" width="20" height="20" rx="10" fill="#1B1D21"/>
            <path id="Vector" d="M10.8285 10.1824H12.6896L12.9818 8.28027H10.8282V7.24067C10.8282 6.4505 11.0848 5.74981 11.8195 5.74981H13V4.08987C12.7926 4.06169 12.3539 4 11.525 4C9.7941 4 8.77933 4.91965 8.77933 7.01485V8.28027H7V10.1824H8.77933V15.4105C9.13172 15.4638 9.48864 15.5 9.85503 15.5C10.1862 15.5 10.5095 15.4695 10.8285 15.4261V10.1824Z" fill="white"/>
        </g>
    </symbol>

    <symbol id="socials_twitter" width="20" height="20" viewBox="0 0 20 20" xmlns="http://www.w3.org/2000/svg">
        <g id="socials">
            <rect id="Rectangle 1" width="20" height="20" rx="10" fill="#1B1D21"/>
            <path id="Vector" d="M15.3 7.45C14.95 7.6 14.55 7.7 14.15 7.75C14.55 7.5 14.9 7.1 15.05 6.65C14.65 6.9 14.25 7.05 13.75 7.15C13.4 6.75 12.85 6.5 12.3 6.5C11.2 6.5 10.3 7.4 10.3 8.5C10.3 8.65 10.3 8.8 10.35 8.95C8.7 8.85 7.2 8.05 6.2 6.85C6.05 7.15 5.95 7.5 5.95 7.85C5.95 8.55 6.3 9.15 6.85 9.5C6.5 9.5 6.2 9.4 5.95 9.25C5.95 10.2 6.65 11.05 7.55 11.2C7.4 11.25 7.2 11.25 7 11.25C6.85 11.25 6.75 11.25 6.6 11.2C6.85 12 7.6 12.6 8.5 12.6C7.8 13.15 6.95 13.45 6 13.45C5.85 13.45 5.7 13.45 5.5 13.4C6.4 13.95 7.45 14.3 8.6 14.3C12.3 14.3 14.3 11.25 14.3 8.6V8.35C14.7 8.2 15.05 7.85 15.3 7.45Z" fill="white"/>
        </g>
    </symbol>

    <symbol id="socials_youtube" width="20" height="20" viewBox="0 0 20 20" xmlns="http://www.w3.org/2000/svg">
        <g id="socials">
            <rect id="Rectangle 1" width="20" height="20" rx="10" fill="#1B1D21"/>
            <path id="Vector" fill-rule="evenodd" clip-rule="evenodd" d="M5.63124 13.5284C5.43511 13.4704 5.25616 13.3672 5.10948 13.2274C4.9628 13.0877 4.8527 12.9156 4.78847 12.7256C4.42146 11.7437 4.31272 7.64347 5.01956 6.83404C5.25481 6.57072 5.58695 6.40861 5.94389 6.38288C7.84012 6.18384 13.6987 6.21038 14.3716 6.44923C14.5608 6.50916 14.7337 6.61013 14.8773 6.74456C15.0209 6.87899 15.1315 7.04341 15.2008 7.22548C15.6018 8.24058 15.6154 11.9295 15.1464 12.9048C15.022 13.1586 14.8137 13.3643 14.5551 13.4886C13.8483 13.8336 6.56917 13.827 5.63124 13.5284V13.5284ZM8.64211 11.6044L12.0404 9.87935L8.64211 8.14106V11.6044Z" fill="white"/>
        </g>
    </symbol>

    <symbol id="uil_search" width="16" height="16" viewBox="0 0 16 16" xmlns="http://www.w3.org/2000/svg">
        <g id="uil:search">
            <path id="Vector" d="M14.4728 13.5266L11.9994 11.0733C12.9595 9.87621 13.4245 8.3568 13.2987 6.82747C13.1729 5.29814 12.4659 3.87512 11.3231 2.85103C10.1804 1.82694 8.68865 1.27961 7.15473 1.32158C5.62081 1.36356 4.16126 1.99164 3.07621 3.0767C1.99116 4.16175 1.36307 5.6213 1.32109 7.15522C1.27912 8.68914 1.82645 10.1808 2.85054 11.3236C3.87464 12.4664 5.29765 13.1733 6.82698 13.2991C8.35631 13.4249 9.87572 12.96 11.0728 11.9999L13.5261 14.4533C13.5881 14.5158 13.6618 14.5654 13.7431 14.5992C13.8243 14.633 13.9114 14.6505 13.9994 14.6505C14.0875 14.6505 14.1746 14.633 14.2558 14.5992C14.3371 14.5654 14.4108 14.5158 14.4728 14.4533C14.5929 14.329 14.6601 14.1628 14.6601 13.9899C14.6601 13.817 14.5929 13.6509 14.4728 13.5266ZM7.33278 11.9999C6.4098 11.9999 5.50755 11.7262 4.74012 11.2135C3.97269 10.7007 3.37455 9.97185 3.02134 9.11913C2.66813 8.2664 2.57572 7.32809 2.75578 6.42285C2.93585 5.5176 3.3803 4.68608 4.03295 4.03344C4.68559 3.38079 5.51712 2.93634 6.42236 2.75627C7.3276 2.57621 8.26592 2.66862 9.11864 3.02183C9.97136 3.37504 10.7002 3.97318 11.213 4.74061C11.7258 5.50804 11.9994 6.41029 11.9994 7.33327C11.9994 8.57095 11.5078 9.75793 10.6326 10.6331C9.75744 11.5083 8.57046 11.9999 7.33278 11.9999Z" />
        </g>
    </symbol>

    <symbol id="weather" width="14" height="13" fill="#828792" viewBox="0 0 14 13" xmlns="http://www.w3.org/2000/svg">
        <path id="Vector" d="M8.11976 5.66012C7.47006 5.66012 6.84697 5.91749 6.38756 6.37561C5.92816 6.83372 5.67007 7.45506 5.67007 8.10294V8.5915H4.69117C4.30135 8.5915 3.9275 8.74592 3.65185 9.02079C3.37621 9.29566 3.22135 9.66846 3.22135 10.0572C3.22135 10.4459 3.37621 10.8187 3.65185 11.0936C3.9275 11.3685 4.30135 11.5229 4.69117 11.5229H11.5503C11.9401 11.5229 12.314 11.3685 12.5896 11.0936C12.8653 10.8187 13.0201 10.4459 13.0201 10.0572C13.0201 9.66846 12.8653 9.29566 12.5896 9.02079C12.314 8.74592 11.9401 8.5915 11.5503 8.5915H10.5704L10.5695 8.10294C10.5695 7.45506 10.3114 6.83372 9.85195 6.37561C9.39255 5.91749 8.76946 5.66012 8.11976 5.66012ZM4.72547 7.61437C4.84343 6.80057 5.25147 6.0564 5.87484 5.51817C6.49822 4.97994 7.29519 4.68369 8.11976 4.68369C8.94433 4.68369 9.7413 4.97994 10.3647 5.51817C10.988 6.0564 11.3961 6.80057 11.5141 7.61437H11.5503C12.2 7.61437 12.8231 7.87174 13.2825 8.32986C13.7419 8.78797 14 9.40931 14 10.0572C14 10.7051 13.7419 11.3264 13.2825 11.7845C12.8231 12.2426 12.2 12.5 11.5503 12.5H4.69117C4.04147 12.5 3.41838 12.2426 2.95898 11.7845C2.49957 11.3264 2.24148 10.7051 2.24148 10.0572C2.24148 9.40931 2.49957 8.78797 2.95898 8.32986C3.41838 7.87174 4.04147 7.61437 4.69117 7.61437H4.72547ZM7.91202 1.57574C7.94226 1.51909 7.96102 1.45705 7.96722 1.39317C7.97341 1.32929 7.96693 1.26482 7.94814 1.20344C7.92935 1.14206 7.89862 1.08497 7.85771 1.03543C7.81679 0.985888 7.76649 0.94487 7.70968 0.914716C7.65287 0.884561 7.59066 0.86586 7.5266 0.859681C7.46254 0.853501 7.39788 0.859964 7.33633 0.878701C7.27478 0.897438 7.21752 0.928081 7.16784 0.968881C7.11817 1.00968 7.07703 1.05984 7.04679 1.11649L6.62937 1.90112C6.56829 2.01554 6.5553 2.14946 6.59325 2.27343C6.6312 2.39739 6.71697 2.50125 6.83171 2.56215C6.94645 2.62305 7.08075 2.636 7.20506 2.59816C7.32938 2.56032 7.43353 2.47479 7.4946 2.36037L7.91202 1.57574ZM4.21593 0.845828C4.19708 0.784428 4.16628 0.727332 4.1253 0.6778C4.08432 0.628267 4.03396 0.587269 3.97709 0.557145C3.92022 0.527021 3.85796 0.508362 3.79386 0.502233C3.72976 0.496103 3.66508 0.502624 3.60351 0.521423C3.54193 0.540221 3.48468 0.57093 3.435 0.611794C3.38533 0.652658 3.34422 0.702879 3.31401 0.759588C3.2838 0.816297 3.26509 0.878384 3.25894 0.942304C3.2528 1.00622 3.25934 1.07073 3.27819 1.13213L3.53981 1.98222C3.57933 2.10436 3.66544 2.20609 3.77956 2.26543C3.89367 2.32477 4.02661 2.33695 4.14966 2.29934C4.2727 2.26174 4.37597 2.17736 4.43714 2.06445C4.49832 1.95154 4.51248 1.81917 4.47658 1.69593L4.21593 0.845828ZM5.18111 2.72875C6.07868 2.72875 6.88119 3.12937 7.42013 3.76059C7.0461 3.81988 6.68144 3.92762 6.3354 4.08109C5.9577 3.80734 5.49439 3.67706 5.02892 3.71372C4.56344 3.75037 4.12638 3.95155 3.79645 4.28103C3.46652 4.6105 3.2654 5.04662 3.22931 5.51084C3.19322 5.97506 3.32453 6.43688 3.59959 6.81313C3.28553 6.91826 2.98846 7.06835 2.7177 7.2587C2.4291 6.81634 2.2656 6.3045 2.24447 5.77719C2.22333 5.24988 2.34534 4.72665 2.59762 4.26274C2.8499 3.79883 3.22309 3.41143 3.6778 3.14144C4.13252 2.87144 4.65189 2.72886 5.18111 2.72875ZM1.08522 2.93785C1.02841 2.9077 0.966199 2.889 0.90214 2.88282C0.83808 2.87664 0.773428 2.8831 0.711873 2.90184C0.650318 2.92058 0.593067 2.95122 0.543388 2.99202C0.493709 3.03282 0.452576 3.08298 0.422336 3.13963C0.392097 3.19628 0.373343 3.25832 0.367146 3.3222C0.36095 3.38608 0.367431 3.45055 0.38622 3.51193C0.40501 3.57331 0.435739 3.6304 0.476654 3.67994C0.51757 3.72948 0.567869 3.7705 0.624681 3.80065L1.41152 4.21691C1.52626 4.27781 1.66056 4.29077 1.78487 4.25292C1.90919 4.21508 2.01334 4.12955 2.07441 4.01513C2.13548 3.90072 2.14847 3.7668 2.11052 3.64283C2.07258 3.51887 1.9868 3.41501 1.87206 3.35411L1.08424 2.93785H1.08522ZM1.49285 7.29876C1.61533 7.25936 1.71735 7.17349 1.77685 7.05969C1.83636 6.9459 1.84857 6.81333 1.81086 6.69063C1.77315 6.56793 1.68854 6.46495 1.57531 6.40395C1.46208 6.34295 1.32933 6.32883 1.20575 6.36463L0.353255 6.62455C0.290889 6.64261 0.232748 6.67286 0.182213 6.71354C0.131677 6.75422 0.0897553 6.80451 0.0588857 6.86148C0.0280161 6.91846 0.00881448 6.98099 0.00239751 7.04544C-0.00401946 7.10988 0.0024763 7.17496 0.021507 7.23688C0.0405377 7.29879 0.0717235 7.35632 0.113251 7.40611C0.154778 7.45591 0.205819 7.49697 0.263404 7.52691C0.320989 7.55686 0.383969 7.57508 0.448683 7.58054C0.513396 7.58599 0.578551 7.57856 0.640359 7.55868L1.49285 7.29876Z"/>
    </symbol>






</svg>

