<svg width="10" height="10" viewBox="0 0 10 10" fill="none" xmlns="http://www.w3.org/2000/svg">
<g id="ph:instagram-logo-fill" clip-path="url(#clip0_190_12608)">
<path id="Vector" d="M6.875 0.9375H3.125C2.54503 0.93812 1.98899 1.16879 1.57889 1.57889C1.16879 1.98899 0.93812 2.54503 0.9375 3.125V6.875C0.93812 7.45497 1.16879 8.01101 1.57889 8.42111C1.98899 8.83121 2.54503 9.06188 3.125 9.0625H6.875C7.45497 9.06188 8.01101 8.83121 8.42111 8.42111C8.83121 8.01101 9.06188 7.45497 9.0625 6.875V3.125C9.06188 2.54503 8.83121 1.98899 8.42111 1.57889C8.01101 1.16879 7.45497 0.93812 6.875 0.9375ZM5 6.875C4.62916 6.875 4.26665 6.76503 3.95831 6.55901C3.64996 6.35298 3.40964 6.06014 3.26773 5.71753C3.12581 5.37492 3.08868 4.99792 3.16103 4.63421C3.23338 4.27049 3.41195 3.9364 3.67417 3.67417C3.9364 3.41195 4.27049 3.23338 4.63421 3.16103C4.99792 3.08868 5.37492 3.12581 5.71753 3.26773C6.06014 3.40964 6.35298 3.64996 6.55901 3.95831C6.76503 4.26665 6.875 4.62916 6.875 5C6.87448 5.49712 6.67677 5.97374 6.32525 6.32525C5.97374 6.67677 5.49712 6.87448 5 6.875ZM7.34375 3.125C7.25104 3.125 7.16041 3.09751 7.08333 3.046C7.00624 2.99449 6.94616 2.92129 6.91068 2.83563C6.8752 2.74998 6.86592 2.65573 6.88401 2.5648C6.90209 2.47387 6.94674 2.39035 7.01229 2.32479C7.07785 2.25924 7.16137 2.21459 7.2523 2.19651C7.34323 2.17842 7.43748 2.1877 7.52313 2.22318C7.60879 2.25866 7.68199 2.31874 7.7335 2.39583C7.78501 2.47291 7.8125 2.56354 7.8125 2.65625C7.8125 2.78057 7.76311 2.8998 7.67521 2.98771C7.5873 3.07561 7.46807 3.125 7.34375 3.125ZM6.25 5C6.25 5.24723 6.17669 5.4889 6.03934 5.69446C5.90199 5.90002 5.70676 6.06024 5.47835 6.15485C5.24995 6.24946 4.99861 6.27421 4.75614 6.22598C4.51366 6.17775 4.29093 6.0587 4.11612 5.88388C3.9413 5.70907 3.82225 5.48634 3.77402 5.24386C3.72579 5.00139 3.75054 4.75005 3.84515 4.52165C3.93976 4.29324 4.09998 4.09801 4.30554 3.96066C4.5111 3.82331 4.75277 3.75 5 3.75C5.33152 3.75 5.64946 3.8817 5.88388 4.11612C6.1183 4.35054 6.25 4.66848 6.25 5Z" fill="white"/>
</g>
<defs>
<clipPath id="clip0_190_12608">
<rect width="10" height="10" fill="white"/>
</clipPath>
</defs>
</svg>
