<svg width="17" height="16" viewBox="0 0 17 16" fill="none" xmlns="http://www.w3.org/2000/svg">
<g id="material-symbols:currency-ruble-rounded">
<path id="Vector" d="M6 14C5.81111 14 5.65267 13.936 5.52467 13.808C5.39667 13.68 5.33289 13.5218 5.33334 13.3333V12H4.66667C4.47778 12 4.31934 11.936 4.19134 11.808C4.06334 11.68 3.99956 11.5218 4 11.3333C4 11.1444 4.064 10.986 4.192 10.858C4.32 10.73 4.47822 10.6662 4.66667 10.6667H5.33334V9.33334H4.66667C4.47778 9.33334 4.31934 9.26934 4.19134 9.14134C4.06334 9.01334 3.99956 8.85511 4 8.66667C4 8.47778 4.064 8.31934 4.192 8.19134C4.32 8.06334 4.47822 7.99956 4.66667 8H5.33334V2.66667C5.33334 2.47778 5.39734 2.31934 5.52534 2.19134C5.65334 2.06334 5.81156 1.99956 6 2H9.66667C10.6889 2 11.5556 2.35556 12.2667 3.06667C12.9778 3.77778 13.3333 4.64445 13.3333 5.66667C13.3333 6.68889 12.9778 7.55556 12.2667 8.26667C11.5556 8.97778 10.6889 9.33334 9.66667 9.33334H6.66667V10.6667H8.66667C8.85556 10.6667 9.014 10.7307 9.142 10.8587C9.27 10.9867 9.33378 11.1449 9.33334 11.3333C9.33334 11.5222 9.26934 11.6807 9.14134 11.8087C9.01334 11.9367 8.85511 12.0004 8.66667 12H6.66667V13.3333C6.66667 13.5222 6.60267 13.6807 6.47467 13.8087C6.34667 13.9367 6.18845 14.0004 6 14ZM6.66667 8H9.66667C10.3111 8 10.8611 7.77222 11.3167 7.31667C11.7722 6.86111 12 6.31111 12 5.66667C12 5.02222 11.7722 4.47222 11.3167 4.01667C10.8611 3.56111 10.3111 3.33334 9.66667 3.33334H6.66667V8Z" fill="#828792"/>
</g>
</svg>
